<svg xmlns="http://www.w3.org/2000/svg" width="19.185" height="38.389" viewBox="0 0 19.185 38.389">
    <g id="Group_710" data-name="Group 710" transform="translate(-6757.046 -2217.012)">
        <g id="Group_25" data-name="Group 25" transform="translate(6757.046 2217.012)">
            <path id="Path_15" data-name="Path 15"
                  d="M6762.593,2246.713l.022-.019,4.2-4.213-1.368-1.365-2.551,2.558v-21.447h-1.934v21.447l-2.553-2.558-1.366,1.365,4.2,4.213.024.019a.94.94,0,0,0,.1.083l.04.028a1.31,1.31,0,0,0,.149.081h0a.98.98,0,0,0,.182.054.905.905,0,0,0,.188.019h0a1.073,1.073,0,0,0,.188-.019.98.98,0,0,0,.182-.054h0a.941.941,0,0,0,.148-.081l.04-.028A.8.8,0,0,0,6762.593,2246.713Z"
                  transform="translate(-6757.046 -2222.226)" fill="#3a8093"/>
            <path id="Path_16" data-name="Path 16"
                  d="M6767.518,2229.61l-.035-.029c-.019-.018-.036-.033-.056-.048s-.038-.029-.058-.042-.039-.025-.06-.036a.627.627,0,0,0-.067-.035l-.04-.02-.021-.007a.489.489,0,0,0-.073-.023c-.021-.008-.042-.013-.062-.02l-.073-.012a.4.4,0,0,0-.068-.008h-.069c-.024,0-.05,0-.071,0a.355.355,0,0,0-.067.008l-.073.012c-.021.006-.043.011-.065.02a.547.547,0,0,0-.071.023l-.021.007-.043.02c-.02.012-.043.021-.064.035a.688.688,0,0,0-.06.036.6.6,0,0,0-.06.042c-.019.016-.037.031-.055.048l-.035.029-4.2,4.215,1.37,1.365,2.551-2.56v21.448h1.932v-21.448l2.553,2.56,1.369-1.365Z"
                  transform="translate(-6752.536 -2215.689)" fill="#3a8093"/>
        </g>
    </g>
</svg>
