<svg xmlns="http://www.w3.org/2000/svg" width="23.566" height="23.563" viewBox="0 0 23.566 23.563">
    <g id="Group_706" data-name="Group 706" transform="translate(-5400.962 -2019.469)">
        <g id="Group_79" data-name="Group 79" transform="translate(5400.962 2019.469)">
            <path id="Path_55" data-name="Path 55"
                  d="M5412.745,2019.469a11.781,11.781,0,1,0,11.783,11.78,11.8,11.8,0,0,0-11.783-11.78Zm0,22.656a10.875,10.875,0,1,1,10.873-10.876,10.889,10.889,0,0,1-10.873,10.876Zm0,0"
                  transform="translate(-5400.962 -2019.469)" fill="#666674"/>
            <path id="Path_56" data-name="Path 56"
                  d="M5405.738,2025.865a.451.451,0,0,0-.453.451v.907a.453.453,0,0,0,.906,0v-.907a.453.453,0,0,0-.453-.451Zm0,0"
                  transform="translate(-5393.955 -2009.099)" fill="#666674"/>
            <path id="Path_57" data-name="Path 57"
                  d="M5407.751,2021.024h-.034a3.625,3.625,0,0,0-3.643,3.627.454.454,0,0,0,.908,0,2.718,2.718,0,0,1,2.756-2.718,2.768,2.768,0,0,1,2.679,2.679,2.708,2.708,0,0,1-1.245,2.326,4.314,4.314,0,0,0-1.924,3.675v1.287a.453.453,0,0,0,.906,0v-1.287a3.465,3.465,0,0,1,1.51-2.915,3.6,3.6,0,0,0,1.659-3.1,3.652,3.652,0,0,0-3.572-3.575Zm0,0"
                  transform="translate(-5395.918 -2016.948)" fill="#666674"/>
        </g>
    </g>
</svg>
