<svg xmlns="http://www.w3.org/2000/svg" width="35.955" height="35.955" viewBox="0 0 35.955 35.955">
    <g id="Group_24" data-name="Group 24" transform="translate(-6755.624 -2311.946)">
        <path id="Path_9" data-name="Path 9"
              d="M6774.3,2313.145a11.985,11.985,0,1,0,11.984,11.984,12,12,0,0,0-11.984-11.984m0,25.167a13.183,13.183,0,1,1,13.183-13.183,13.2,13.2,0,0,1-13.183,13.183"
              transform="translate(4.092 0)" fill="#3a8093"/>
        <path id="Path_10" data-name="Path 10"
              d="M6768.808,2343.681a13.181,13.181,0,0,1-2.827-26.055.6.6,0,1,1,.257,1.171,11.982,11.982,0,1,0,14.271,14.271.6.6,0,0,1,1.171.256,13.253,13.253,0,0,1-12.872,10.356"
              transform="translate(0 4.22)" fill="#3a8093"/>
        <path id="Path_11" data-name="Path 11"
              d="M6772.951,2327.452h-5.394a.6.6,0,0,1-.387-1.055c1.287-1.089,1.122-4.158.537-6.667a2.955,2.955,0,0,1,5.441-2.162.6.6,0,1,1-1.037.6,1.8,1.8,0,0,0-1.559-.9,1.718,1.718,0,0,0-1.68,2.192c.345,1.483.917,4.739-.115,6.8h4.192a.6.6,0,0,1,0,1.2"
              transform="translate(8.441 3.07)" fill="#3a8093"/>
        <path id="Path_12" data-name="Path 12" d="M6771.409,2320.7h-4.2a.6.6,0,0,1,0-1.2h4.2a.6.6,0,0,1,0,1.2"
              transform="translate(8.185 5.627)" fill="#3a8093"/>
        <path id="Path_13" data-name="Path 13"
              d="M6767.456,2332.769h-5.394a.6.6,0,0,1-.386-1.055c1.285-1.091,1.12-4.157.535-6.666a3.086,3.086,0,0,1,.226-2.067l.027-.056a.6.6,0,0,1,1.058.565,1.917,1.917,0,0,0-.144,1.286c.346,1.483.916,4.738-.116,6.8h4.193a.6.6,0,1,1,0,1.2"
              transform="translate(4.348 7.94)" fill="#3a8093"/>
        <path id="Path_14" data-name="Path 14" d="M6765.914,2326.54h-4.2a.6.6,0,1,1,0-1.2h4.2a.6.6,0,1,1,0,1.2"
              transform="translate(4.092 9.975)" fill="#3a8093"/>
    </g>
</svg>
