<svg xmlns="http://www.w3.org/2000/svg" width="26.741" height="26.741" viewBox="0 0 26.741 26.741">
    <g id="Group_694" data-name="Group 694" transform="translate(-5571.129 -1195.259)">
        <g id="Group_475" data-name="Group 475">
            <path id="Path_273" data-name="Path 273"
                  d="M5589.73,1203.247h-1.21v-.356a.761.761,0,0,0-1.523,0v.356h-4.266v-.356a.761.761,0,0,0-1.523,0v.365a.259.259,0,0,0-.068-.009h-1.012a1.27,1.27,0,0,0-1.269,1.269v4.325a.254.254,0,0,0,.508,0v-2.979h9.153a.254.254,0,0,0,0-.508h-9.153v-.838a.761.761,0,0,1,.761-.761h1.012a.26.26,0,0,0,.068-.01v.327a.761.761,0,1,0,1.523,0v-.317H5587v.317a.761.761,0,1,0,1.523,0v-.317h1.21a.762.762,0,0,1,.762.761v9.649a.457.457,0,0,1-.914,0v-.657a.255.255,0,0,0-.254-.254h-2.954a.254.254,0,0,0,0,.508h2.7v.4a.962.962,0,0,0,.115.457h-10.22a.458.458,0,0,1-.457-.457v-.4h5.683a.254.254,0,0,0,0-.508h-2.537a2.083,2.083,0,1,0-2.713,0h-.687a.254.254,0,0,0-.254.254v.657a.966.966,0,0,0,.965.965h11.07a.966.966,0,0,0,.965-.965v-9.649A1.271,1.271,0,0,0,5589.73,1203.247Zm-7.507.825a.254.254,0,0,1-.508,0v-1.181a.254.254,0,0,1,.508,0Zm5.789,0a.254.254,0,1,1-.507,0v-1.181a.254.254,0,1,1,.507,0Zm-9.289,7.6a1.574,1.574,0,1,1,1.574,1.574A1.576,1.576,0,0,1,5578.723,1211.677Z"
                  fill="#3a8093"/>
            <path id="Path_274" data-name="Path 274"
                  d="M5583.745,1211.778a.965.965,0,1,0-.965-.965A.965.965,0,0,0,5583.745,1211.778Zm0-1.422a.457.457,0,1,1-.458.457A.458.458,0,0,1,5583.745,1210.356Z"
                  fill="#3a8093"/>
            <path id="Path_275" data-name="Path 275"
                  d="M5586.114,1211.778a.965.965,0,1,0-.965-.965A.966.966,0,0,0,5586.114,1211.778Zm0-1.422a.457.457,0,1,1-.457.457A.457.457,0,0,1,5586.114,1210.356Z"
                  fill="#3a8093"/>
            <path id="Path_276" data-name="Path 276"
                  d="M5588.484,1211.778a.965.965,0,1,0-.965-.965A.966.966,0,0,0,5588.484,1211.778Zm0-1.422a.457.457,0,1,1-.457.457A.458.458,0,0,1,5588.484,1210.356Z"
                  fill="#3a8093"/>
            <path id="Path_277" data-name="Path 277"
                  d="M5582.34,1208.173a.965.965,0,1,0-.965.964A.966.966,0,0,0,5582.34,1208.173Zm-1.422,0a.457.457,0,1,1,.457.457A.458.458,0,0,1,5580.918,1208.173Z"
                  fill="#3a8093"/>
            <path id="Path_278" data-name="Path 278"
                  d="M5586.114,1209.137a.964.964,0,1,0-.965-.964A.966.966,0,0,0,5586.114,1209.137Zm0-1.421a.457.457,0,1,1-.457.457A.457.457,0,0,1,5586.114,1207.716Z"
                  fill="#3a8093"/>
            <path id="Path_279" data-name="Path 279"
                  d="M5588.484,1209.137a.964.964,0,1,0-.965-.964A.966.966,0,0,0,5588.484,1209.137Zm0-1.421a.457.457,0,1,1-.457.457A.458.458,0,0,1,5588.484,1207.716Z"
                  fill="#3a8093"/>
            <path id="Path_280" data-name="Path 280"
                  d="M5583.745,1209.137a.964.964,0,1,0-.965-.964A.965.965,0,0,0,5583.745,1209.137Zm0-1.421a.457.457,0,1,1-.458.457A.458.458,0,0,1,5583.745,1207.716Z"
                  fill="#3a8093"/>
            <path id="Path_281" data-name="Path 281"
                  d="M5579.836,1212.423a.256.256,0,0,0,.18.075.251.251,0,0,0,.179-.075l1.007-1.006a.254.254,0,0,0-.359-.359l-.827.827-.283-.283a.254.254,0,0,0-.359.359Z"
                  fill="#3a8093"/>
            <circle id="Ellipse_52" data-name="Ellipse 52" cx="13.37" cy="13.37" r="13.37"
                    transform="translate(5571.129 1195.259)" fill="#3a8093" opacity="0.1"/>
        </g>
    </g>
</svg>
