<svg xmlns="http://www.w3.org/2000/svg" width="13.906" height="13.908" viewBox="0 0 13.906 13.908">
    <g id="Group_687" data-name="Group 687" transform="translate(-1640.048 -1425)">
        <g id="Group_685" data-name="Group 685">
            <g id="Group_657" data-name="Group 657">
                <g id="Group_653" data-name="Group 653">
                    <path id="Path_404" data-name="Path 404"
                          d="M1646.979,1438.908c-2.167,0-4.328-.437-5.376-1.31-.865-.721-1.425-2.384-1.537-4.564-.116-2.283.307-5.3,1.509-6.531,1.084-1.108,3.509-1.5,5.418-1.5h0c1.908,0,4.334.4,5.417,1.5,1.23,1.258,1.65,4.317,1.521,6.626-.07,1.255-.366,3.5-1.552,4.472C1651.312,1438.472,1649.143,1438.908,1646.979,1438.908Zm.014-13.163c-2.208,0-4.126.5-4.885,1.278-.883.9-1.428,3.415-1.3,5.973.1,1.944.574,3.45,1.27,4.03,1.863,1.553,7.925,1.551,9.828,0,.7-.567,1.173-2.039,1.279-3.936.143-2.548-.42-5.155-1.31-6.065C1651.118,1426.247,1649.2,1425.745,1646.993,1425.745Z"
                          fill="#acacb7"/>
                </g>
                <g id="Group_656" data-name="Group 656">
                    <g id="Group_654" data-name="Group 654">
                        <path id="Path_405" data-name="Path 405" d="M1642.872,1428.947h1.318v5.975h-1.318Z"
                              fill="#acacb7"/>
                    </g>
                    <g id="Group_655" data-name="Group 655">
                        <path id="Path_406" data-name="Path 406"
                              d="M1650.248,1429.73a2.8,2.8,0,0,1,.865,2.184,3.083,3.083,0,0,1-.824,2.225,3.587,3.587,0,0,1-2.555.824h-2.06v-6.016h2.143A3.661,3.661,0,0,1,1650.248,1429.73Zm-.989,3.585a1.714,1.714,0,0,0,.495-1.36,1.838,1.838,0,0,0-.495-1.36,2.059,2.059,0,0,0-1.525-.494h-.741v3.626h.865A1.847,1.847,0,0,0,1649.259,1433.315Z"
                              fill="#acacb7"/>
                    </g>
                </g>
            </g>
        </g>
    </g>
</svg>
