<svg xmlns="http://www.w3.org/2000/svg" width="11.338" height="14.868" viewBox="0 0 11.338 14.868">
    <g id="Group_686" data-name="Group 686" transform="translate(-1641.662 -1490)">
        <g id="Group_645" data-name="Group 645">
            <path id="Path_400" data-name="Path 400"
                  d="M1651.449,1504.868h-8.236a1.553,1.553,0,0,1-1.551-1.551v-7.354a.669.669,0,0,1,.668-.668h.508v-.8a4.492,4.492,0,0,1,8.985,0v.8h.509a.669.669,0,0,1,.668.668v7.354A1.553,1.553,0,0,1,1651.449,1504.868Zm-9.039-8.825v7.274a.8.8,0,0,0,.8.8h8.236a.8.8,0,0,0,.8-.8v-7.274h-1.177v-1.551a3.744,3.744,0,0,0-7.488,0v1.551Zm5.509,6.472h-1.176a.67.67,0,0,1-.665-.742l.164-1.471a1.529,1.529,0,0,1-.462-1.1,1.551,1.551,0,1,1,3.1,0,1.529,1.529,0,0,1-.462,1.1l.164,1.471a.67.67,0,0,1-.665.742Zm-1.087-.749h1l-.2-1.8.176-.127a.789.789,0,0,0,.327-.644.8.8,0,0,0-1.605,0,.79.79,0,0,0,.328.644l.176.127Zm3.226-5.723H1644.6v-1.551a2.727,2.727,0,0,1,5.455,0Zm-4.706-.748h3.958v-.8a1.979,1.979,0,0,0-3.958,0Z"
                  fill="#acacb7"/>
        </g>
    </g>
</svg>
