<svg xmlns="http://www.w3.org/2000/svg" width="12.738" height="10.144" viewBox="0 0 12.738 10.144">
    <g id="Group_649" data-name="Group 649" transform="translate(-1640.631 -1295)">
        <g id="Group_647" data-name="Group 647">
            <path id="Path_401" data-name="Path 401"
                  d="M1647.007,1301.684h-.014a1.392,1.392,0,0,1-.437-.077,2.291,2.291,0,0,1-.449-.21c-.149-.088-.269-.163-.368-.23s-.223-.154-.373-.262-.239-.172-.283-.2q-.615-.434-1.77-1.233t-1.384-.962a3.693,3.693,0,0,1-.864-.851,1.886,1.886,0,0,1-.434-1.111,1.674,1.674,0,0,1,.349-1.075,1.269,1.269,0,0,1,1.047-.47h9.946a1.405,1.405,0,0,1,1.4,1.4,2.1,2.1,0,0,1-.386,1.2,3.516,3.516,0,0,1-.9.912l-.861.6q-1.793,1.243-2.3,1.6c-.044.03-.139.1-.284.2s-.273.2-.373.263-.218.141-.366.229a2.414,2.414,0,0,1-.45.21A1.392,1.392,0,0,1,1647.007,1301.684Zm-4.98-6.054a.653.653,0,0,0-.555.233,1.05,1.05,0,0,0-.211.682,1.284,1.284,0,0,0,.309.734,3.062,3.062,0,0,0,.714.708l.006,0q.228.162,1.382.961t1.772,1.235c.045.031.143.1.291.208s.262.187.356.251.2.129.336.21a1.7,1.7,0,0,0,.328.154.761.761,0,0,0,.238.045h.014a.761.761,0,0,0,.238-.045,1.667,1.667,0,0,0,.329-.155c.136-.08.245-.149.334-.209s.214-.147.356-.25.246-.178.292-.209l2.3-1.6.86-.6a2.914,2.914,0,0,0,.744-.75,1.467,1.467,0,0,0,.277-.843.775.775,0,0,0-.767-.766Z"
                  fill="#acacb7"/>
        </g>
        <g id="Group_648" data-name="Group 648">
            <path id="Path_402" data-name="Path 402"
                  d="M1651.973,1305.144h-9.946a1.4,1.4,0,0,1-1.4-1.4v-6.187l.549.612a3.3,3.3,0,0,0,.623.537c1.623,1.1,2.755,1.888,3.369,2.338.249.184.455.33.613.434a3.472,3.472,0,0,0,.585.3,1.63,1.63,0,0,0,.623.142h.014a1.641,1.641,0,0,0,.622-.141,3.554,3.554,0,0,0,.585-.3c.158-.1.364-.25.613-.434.77-.557,1.905-1.343,3.375-2.338a3.394,3.394,0,0,0,.618-.538l.549-.612v6.187a1.4,1.4,0,0,1-1.4,1.4Zm-10.712-6.048v4.651a.723.723,0,0,0,.225.542.732.732,0,0,0,.541.225h9.946a.732.732,0,0,0,.541-.225.724.724,0,0,0,.226-.542V1299.1c-.06.045-.121.09-.184.132h0c-1.464.991-2.594,1.774-3.357,2.326-.255.188-.47.34-.636.45a4.018,4.018,0,0,1-.691.352,2.266,2.266,0,0,1-.864.19h-.014a2.258,2.258,0,0,1-.864-.19,4.035,4.035,0,0,1-.692-.353c-.166-.11-.381-.262-.638-.451-.607-.445-1.734-1.227-3.348-2.324C1641.386,1299.188,1641.323,1299.143,1641.261,1299.1Z"
                  fill="#acacb7"/>
        </g>
    </g>
</svg>
