<svg xmlns="http://www.w3.org/2000/svg" width="50.243" height="25.475" viewBox="0 0 50.243 25.475">
    <g id="Group_20" data-name="Group 20" transform="translate(-6749.264 -2143.016)">
        <path id="Path_6" data-name="Path 6"
              d="M6755.952,2145.944c1.1,0,2.152.044,3.207-.011a1.616,1.616,0,0,1,1.843,1.842c-.057.445.131.543.549.537,1.79-.021,3.581,0,5.37-.016a1.142,1.142,0,0,0,.617-.206c1.343-.972,2.691-1.942,4-2.958a4.4,4.4,0,0,1,2.475-.916,10.635,10.635,0,0,1,5.28.85c1.913.886,3.881,1.653,5.854,2.4a18.486,18.486,0,0,0,2.474.583,7.4,7.4,0,0,1,.455-1.076,1.422,1.422,0,0,1,1.3-.628c1.136.007,2.273,0,3.381,0,.046-.066.078-.09.082-.117.1-1.1.1-1.1,1.153-1.423q2.167-.661,4.331-1.327c.726-.22,1.254.145,1.162.808-.059.425-.372.572-.731.681-1.308.4-2.607.811-3.916,1.191a.522.522,0,0,0-.447.612c.021.917-.185,1.1-1.116,1.1-1.3,0-2.6,0-3.928,0v14.955c.158.007.315.023.469.023q1.928,0,3.856-.007a.707.707,0,0,1,.711.8c-.071.632.183.856.773,1.009,1.224.316,2.424.733,3.633,1.11.59.184.825.55.673,1.042-.134.437-.551.6-1.125.426-1.537-.466-3.074-.941-4.61-1.413-.748-.229-.844-.355-.869-1.131,0-.08-.012-.158-.028-.324-.665,0-1.326,0-1.985,0-.458,0-.912.016-1.368.016a1.551,1.551,0,0,1-1.712-1.68c0-.1-.01-.193-.02-.368-.779.177-1.529.342-2.276.524-.065.015-.122.137-.152.22a2.393,2.393,0,0,1-3.114,1.837,2.517,2.517,0,0,1-3.807,1.444,2.554,2.554,0,0,1-3.559.867c-.043.017-.066.018-.073.029-1.061,1.624-2.679,1.517-4.03.442-2.549-2.021-5.123-4.01-7.67-6.031-.61-.482-1.273-.215-1.918-.246-.042,0-.124.171-.13.27-.022.226-.006.455-.011.682a1.537,1.537,0,0,1-1.628,1.619c-.975.012-1.951,0-2.928.005-.159,0-.319.013-.506.022-.011.166-.032.308-.029.448a.833.833,0,0,1-.656.9q-2.448.749-4.892,1.495a.777.777,0,1,1-.456-1.471c1.333-.417,2.665-.831,4-1.227.326-.095.479-.213.47-.59-.026-.948.174-1.125,1.135-1.125,1.285,0,2.569,0,3.9,0v-14.944c-.16-.008-.331-.022-.5-.022-1.189,0-2.375,0-3.564,0-.73,0-1.013-.247-.968-.954.035-.51-.153-.688-.629-.819-1.267-.346-2.517-.76-3.775-1.147-.576-.177-.824-.565-.672-1.047.137-.441.551-.607,1.131-.43q2.3.7,4.609,1.415c.743.229.868.406.868,1.183A2.037,2.037,0,0,0,6755.952,2145.944Zm17.555,4.764c-.731.524-1.434.99-2.1,1.511a4.9,4.9,0,0,1-3.635.932c-2.112-.186-3.106-1.454-2.565-3.271h-4.154v9.97c.474,0,.88.027,1.277-.005a2.083,2.083,0,0,1,1.567.5c2.241,1.806,4.5,3.584,6.767,5.361a15.89,15.89,0,0,0,1.636,1.139.723.723,0,0,0,1.049-.291.693.693,0,0,0-.144-.989c-1.124-1.083-2.227-2.19-3.331-3.29a.8.8,0,0,1-.085-1.2.819.819,0,0,1,1.171.1q1.13,1.111,2.252,2.235c.768.771,1.528,1.548,2.3,2.319a.884.884,0,0,0,1.338.055c.375-.379.35-.7-.091-1.169-.988-1.056-1.981-2.108-2.963-3.17a.8.8,0,0,1-.082-1.2c.357-.34.807-.28,1.229.169.7.745,1.4,1.491,2.1,2.243.672.729,1.331,1.469,2.006,2.2a.927.927,0,0,0,1.3.171.876.876,0,0,0,.115-1.292,7.282,7.282,0,0,0-.6-.761c-.826-.9-1.664-1.786-2.49-2.684a.786.786,0,0,1-.01-1.168.777.777,0,0,1,1.128.1c1.1,1.174,2.191,2.361,3.295,3.531a3.316,3.316,0,0,0,.719.568.766.766,0,0,0,1.12-.186.756.756,0,0,0-.121-1.079q-3.943-4.456-7.862-8.938C6774.939,2152.31,6774.224,2151.512,6773.506,2150.708Zm14.258,4.469c0-1.724-.005-3.448,0-5.172,0-.308-.049-.47-.414-.49a8.391,8.391,0,0,1-1.344-.224,28.454,28.454,0,0,1-6.734-2.527,9.168,9.168,0,0,0-4.792-1.035,3.751,3.751,0,0,0-2.127.728c-1.771,1.347-3.579,2.649-5.364,3.976a3.6,3.6,0,0,0-.445.472c.175.16.324.389.53.466a3.212,3.212,0,0,0,3.038-.17c.947-.628,1.846-1.329,2.755-2.011.589-.441.88-.446,1.387.1q1.586,1.723,3.14,3.471,3.65,4.132,7.273,8.285a.639.639,0,0,0,.752.239c.64-.176,1.289-.337,1.943-.453.341-.062.405-.224.4-.53C6787.757,2158.594,6787.763,2156.886,6787.765,2155.177Z"
              transform="translate(0)" fill="#3a8093"/>
    </g>
</svg>
