<svg xmlns="http://www.w3.org/2000/svg" width="35.688" height="35.688" viewBox="0 0 35.688 35.688">
    <g id="Group_23" data-name="Group 23" transform="translate(-6755.891 -2266.58)">
        <path id="Path_7" data-name="Path 7"
              d="M6773.735,2268.363a16.06,16.06,0,1,0,16.059,16.061,16.079,16.079,0,0,0-16.059-16.061m0,33.9a17.844,17.844,0,1,1,17.844-17.844,17.864,17.864,0,0,1-17.844,17.844"
              transform="translate(0)" fill="#3a8093"/>
        <g id="Group_22" data-name="Group 22" transform="translate(6768.535 2276.76)">
            <g id="Group_21" data-name="Group 21">
                <path id="Path_8" data-name="Path 8"
                      d="M6773.425,2276.648v-.434a3.908,3.908,0,0,0-7.815,0v3.041H6763v1.737h2.5a9.422,9.422,0,0,1-1.487,3.86.868.868,0,0,0,.722,1.351h7.816v-1.737h-6.322a11.1,11.1,0,0,0,1.018-3.474h2.7v-1.737h-2.605v-3.041a2.171,2.171,0,0,1,4.342,0v.434Zm0,0"
                      transform="translate(-6763.003 -2272.306)" fill="#3a8093"/>
            </g>
        </g>
    </g>
</svg>
