<svg xmlns="http://www.w3.org/2000/svg" width="39.437" height="45.07" viewBox="0 0 39.437 45.07">
    <g id="Group_684" data-name="Group 684" transform="translate(-5373.272 -1601)">
        <g id="Group_497" data-name="Group 497" transform="translate(5373.272 1601)">
            <path id="Path_297" data-name="Path 297"
                  d="M5316.028,1601h23.933l12.687,12.637v29.617a2.818,2.818,0,0,1-2.818,2.816h-33.8a2.818,2.818,0,0,1-2.817-2.816v-39.436a2.818,2.818,0,0,1,2.817-2.818Zm0,0"
                  transform="translate(-5313.211 -1601)" fill="#e2574c"/>
            <path id="Path_298" data-name="Path 298"
                  d="M5344.5,1613.667h-9.817a2.818,2.818,0,0,1-2.819-2.816v-9.831Zm0,0"
                  transform="translate(-5305.103 -1600.991)" fill="#b53629"/>
            <path id="Path_299" data-name="Path 299"
                  d="M5339.089,1616.376a.819.819,0,0,0,0-1.621H5336.4a.841.841,0,0,0-.819.917v6.6c0,.59.336.917.789.917s.788-.327.788-.917v-1.812h1.625a.763.763,0,0,0,.756-.822.749.749,0,0,0-.756-.8h-1.625v-2.464Zm-9.083-1.621h-1.967a.868.868,0,0,0-.91.911v6.614a.866.866,0,0,0,.933.886h2.063a3.827,3.827,0,0,0,4.057-4.087c0-2.623-1.521-4.324-4.175-4.324Zm.095,6.782h-1.2v-5.151h1.08c1.635,0,2.348,1.1,2.348,2.611,0,1.417-.7,2.539-2.228,2.539Zm-7.2-6.782h-1.948a.82.82,0,0,0-.858.917v6.6a.83.83,0,1,0,1.652,0v-1.927h1.221a2.667,2.667,0,0,0,2.75-2.785,2.7,2.7,0,0,0-2.817-2.808Zm-.033,4.043h-1.121v-2.492h1.121a1.252,1.252,0,0,1,0,2.492Zm0,0"
                  transform="translate(-5310.22 -1595.021)" fill="#fff"/>
        </g>
    </g>
</svg>
