<svg xmlns="http://www.w3.org/2000/svg" width="9.678" height="14" viewBox="0 0 9.678 14">
    <g id="Group_684" data-name="Group 684" transform="translate(-1642.161 -1227)">
        <g id="Group_644" data-name="Group 644">
            <g id="Group_643" data-name="Group 643">
                <path id="Path_398" data-name="Path 398"
                      d="M1647,1227.645a2.581,2.581,0,1,0,2.581,2.581,2.584,2.584,0,0,0-2.581-2.581m0,5.807a3.226,3.226,0,1,1,3.226-3.226,3.229,3.229,0,0,1-3.226,3.226"
                      fill="#acacb7"/>
                <path id="Path_399" data-name="Path 399"
                      d="M1651.516,1241a.323.323,0,0,1-.322-.323v-2.386a4.212,4.212,0,0,0-1.921-3.52,4.566,4.566,0,0,1-4.546,0,4.212,4.212,0,0,0-1.921,3.52v2.386a.323.323,0,1,1-.645,0v-2.386a4.859,4.859,0,0,1,2.4-4.177.328.328,0,0,1,.339.007,3.913,3.913,0,0,0,4.2,0,.326.326,0,0,1,.338-.007,4.859,4.859,0,0,1,2.4,4.177v2.386a.323.323,0,0,1-.323.323"
                      fill="#acacb7"/>
            </g>
        </g>
    </g>
</svg>
