<svg xmlns="http://www.w3.org/2000/svg" width="14.741" height="14.709" viewBox="0 0 14.741 14.709">
    <g id="Group_652" data-name="Group 652" transform="translate(-1641.259 -1358.368)">
        <g id="Group_651" data-name="Group 651">
            <g id="Group_650" data-name="Group 650">
                <path id="Path_403" data-name="Path 403"
                      d="M1652.639,1373.077c-.923,0-3.937-.3-7.493-3.857-3.029-3.03-4.141-5.283-3.84-7.776a4,4,0,0,1,.245-.983,3.875,3.875,0,0,1,.554-.981l.022-.025.594-.63a1.525,1.525,0,0,1,1.056-.457,1.435,1.435,0,0,1,1.048.42l2.167,2.167a1.485,1.485,0,0,1-.029,2.1l-.9.9a9.84,9.84,0,0,0,4.357,4.356l.9-.9a1.487,1.487,0,0,1,2.1-.031l2.167,2.168a1.491,1.491,0,0,1-.027,2.1l-.666.623a3.836,3.836,0,0,1-.974.553,4.025,4.025,0,0,1-.99.248C1652.9,1373.067,1652.8,1373.077,1652.639,1373.077Zm-9.982-13.145a3.153,3.153,0,0,0-.441.785,3.268,3.268,0,0,0-.2.809c-.272,2.252.781,4.334,3.636,7.19,3.953,3.952,7.063,3.656,7.193,3.641a3.272,3.272,0,0,0,.814-.2,3.165,3.165,0,0,0,.78-.44l.621-.583a.774.774,0,0,0,.02-1.083l-2.167-2.167a.773.773,0,0,0-1.088.031l-1.28,1.28-.234-.128-.22-.122a10.569,10.569,0,0,1-4.665-4.667l-.118-.211-.129-.235,1.282-1.281a.772.772,0,0,0,.029-1.089l-2.167-2.167a.732.732,0,0,0-.531-.21.808.808,0,0,0-.558.24Z"
                      fill="#acacb7"/>
            </g>
        </g>
    </g>
</svg>
