<svg xmlns="http://www.w3.org/2000/svg" width="133.178" height="133.178" viewBox="0 0 133.178 133.178">
    <g id="Group_686" data-name="Group 686" transform="translate(-3240 -2477)">
        <g id="Group_172" data-name="Group 172" transform="translate(3240 2477)">
            <g id="Group_170" data-name="Group 170" transform="translate(40.003 43.389)">
                <path id="Path_94" data-name="Path 94"
                      d="M3302.237,2541.86h-37.258a7.956,7.956,0,0,1-7.958-7.956v-23.711a7.96,7.96,0,0,1,7.958-7.956h5.107l1.062-2.829a6.1,6.1,0,0,1,2.266-2.79,5.878,5.878,0,0,1,3.419-1.157h13.549a5.885,5.885,0,0,1,3.417,1.154,6.106,6.106,0,0,1,2.264,2.778l1.067,2.844h5.107a7.7,7.7,0,0,1,5.626,2.332h0a7.691,7.691,0,0,1,2.329,5.624V2533.9a7.953,7.953,0,0,1-7.956,7.956Zm-37.258-37.255a5.593,5.593,0,0,0-5.591,5.588V2533.9a5.59,5.59,0,0,0,5.591,5.589h37.258a5.586,5.586,0,0,0,5.589-5.589v-23.711a5.329,5.329,0,0,0-1.636-3.95h0a5.339,5.339,0,0,0-3.953-1.638h-6.748l-1.638-4.367a3.728,3.728,0,0,0-1.412-1.685,3.531,3.531,0,0,0-2.056-.724h-13.549a3.538,3.538,0,0,0-2.059.724,3.746,3.746,0,0,0-1.415,1.7l-1.633,4.355Zm18.628,30.484a13.064,13.064,0,1,1,9.212-3.826h0A12.616,12.616,0,0,1,3283.607,2535.089Zm0-23.711a10.7,10.7,0,1,0,7.54,3.135A10.18,10.18,0,0,0,3283.607,2511.378Z"
                      transform="translate(-3257.021 -2495.462)" fill="#3a8093"/>
            </g>
            <g id="Group_171" data-name="Group 171" transform="translate(57.784 61.174)">
                <path id="Path_95" data-name="Path 95"
                      d="M3273.391,2520.637a8.818,8.818,0,1,1,6.223-2.583A8.519,8.519,0,0,1,3273.391,2520.637Zm0-15.241a6.453,6.453,0,1,0,4.55,1.89A6.148,6.148,0,0,0,3273.391,2505.4Z"
                      transform="translate(-3264.587 -2503.029)" fill="#3a8093"/>
            </g>
            <circle id="Ellipse_12" data-name="Ellipse 12" cx="66.589" cy="66.589" r="66.589" fill="#3a8093"
                    opacity="0.1"/>
        </g>
    </g>
</svg>
