<svg xmlns="http://www.w3.org/2000/svg" width="26.741" height="26.741" viewBox="0 0 26.741 26.741">
    <g id="Group_695" data-name="Group 695" transform="translate(-5571.129 -1259)">
        <g id="Group_476" data-name="Group 476">
            <path id="Path_282" data-name="Path 282"
                  d="M5589,1270v-.333a3,3,0,0,0-6,0V1272h-2v1.333h1.921a7.242,7.242,0,0,1-1.142,2.964.666.666,0,0,0,.554,1.036h6V1276h-4.853a8.56,8.56,0,0,0,.782-2.667h2.071V1272h-2v-2.333a1.667,1.667,0,0,1,3.334,0V1270Zm0,0"
                  fill="#3a8093"/>
            <circle id="Ellipse_53" data-name="Ellipse 53" cx="13.37" cy="13.37" r="13.37"
                    transform="translate(5571.129 1259)" fill="#3a8093" opacity="0.1"/>
        </g>
    </g>
</svg>
