<svg xmlns="http://www.w3.org/2000/svg" width="32.328" height="38.007" viewBox="0 0 32.328 38.007">
    <g id="Group_708" data-name="Group 708" transform="translate(-6752.5 -2097.501)">
        <g id="Group_707" data-name="Group 707" transform="translate(6752.5 2097.501)">
            <g id="Group_28" data-name="Group 28">
                <g id="Group_27" data-name="Group 27">
                    <path id="Path_18" data-name="Path 18"
                          d="M6764.831,2117.981h.252a7.265,7.265,0,0,0,5.549-2.4c3.03-3.417,2.527-9.271,2.47-9.83-.2-4.2-2.18-6.2-3.815-7.14a8.76,8.76,0,0,0-4.235-1.109h-.134a8.752,8.752,0,0,0-4.233,1.08c-1.653.936-3.668,2.942-3.864,7.169-.055.559-.559,6.413,2.47,9.83a7.239,7.239,0,0,0,5.542,2.4Zm-5.911-12.035c0-.024.008-.046.008-.063.26-5.643,4.268-6.249,5.981-6.249h.1c2.124.047,5.737.913,5.981,6.249a.152.152,0,0,0,.008.063c.007.054.558,5.408-1.945,8.226a5.151,5.151,0,0,1-4.052,1.683h-.081a5.139,5.139,0,0,1-4.044-1.683c-2.5-2.8-1.959-8.178-1.953-8.226Zm0,0"
                          transform="translate(-6748.805 -2097.501)" fill="#3a8093"/>
                    <path id="Path_19" data-name="Path 19"
                          d="M6784.826,2118.211v-.025c0-.062-.009-.125-.009-.2-.046-1.558-.148-5.2-3.563-6.366-.024-.009-.057-.017-.078-.024a22.753,22.753,0,0,1-6.534-2.976,1.062,1.062,0,1,0-1.219,1.741,24.518,24.518,0,0,0,7.183,3.281c1.835.654,2.041,2.613,2.1,4.408a1.958,1.958,0,0,0,.006.2,14.448,14.448,0,0,1-.163,2.432,31.437,31.437,0,0,1-27.759-.008,13.484,13.484,0,0,1-.167-2.432c0-.063.011-.125.011-.2.054-1.8.259-3.755,2.091-4.408a24.7,24.7,0,0,0,7.187-3.282,1.062,1.062,0,0,0-1.219-1.739,22.468,22.468,0,0,1-6.533,2.976.712.712,0,0,0-.08.022c-3.416,1.173-3.519,4.817-3.566,6.368a1.931,1.931,0,0,1-.006.2v.024a12.112,12.112,0,0,0,.4,3.564,1.006,1.006,0,0,0,.41.5c.235.157,5.895,3.762,15.363,3.762s15.126-3.613,15.362-3.762a1.044,1.044,0,0,0,.409-.5,12.645,12.645,0,0,0,.379-3.556Zm0,0"
                          transform="translate(-6752.5 -2088.019)" fill="#3a8093"/>
                </g>
            </g>
        </g>
    </g>
</svg>
