<svg xmlns="http://www.w3.org/2000/svg" width="26.741" height="26.741" viewBox="0 0 26.741 26.741">
    <g id="Group_692" data-name="Group 692" transform="translate(-5571.129 -1132.259)">
        <g id="Group_691" data-name="Group 691">
            <g id="Group_690" data-name="Group 690">
                <g id="Group_689" data-name="Group 689">
                    <g id="Group_688" data-name="Group 688">
                        <g id="Group_687" data-name="Group 687">
                            <g id="Group_686" data-name="Group 686">
                                <g id="Group_685" data-name="Group 685">
                                    <g id="Group_684" data-name="Group 684">
                                        <g id="Group_473" data-name="Group 473">
                                            <path id="Path_270" data-name="Path 270"
                                                  d="M5580.36,1143h7.361a.227.227,0,0,0,.227-.227v-2.82a.227.227,0,0,0-.227-.227h-7.361a.227.227,0,0,0-.227.227v2.82a.227.227,0,0,0,.227.227Zm.114-2.933h7.133v2.592h-7.133Zm0,0"
                                                  fill="#3a8093"/>
                                            <path id="Path_271" data-name="Path 271"
                                                  d="M5588.763,1146.018v-6.624a.763.763,0,0,0-.76-.764h-7.889a.762.762,0,0,0-.76.764v12.465a.764.764,0,0,0,.76.765H5588l.021,0c.075.005.151.008.227.008a3.321,3.321,0,0,0,.512-6.612Zm-8.649,6.264a.421.421,0,0,1-.419-.423v-12.465a.421.421,0,0,1,.419-.423H5588a.422.422,0,0,1,.419.423v6.591c-.057,0-.114,0-.171,0-.092,0-.183,0-.273.01v-2.115a.23.23,0,0,0-.23-.23h-7.5a.23.23,0,0,0-.23.23v7.689a.23.23,0,0,0,.23.23h4.8a.166.166,0,0,0,.116,0H5586a3.428,3.428,0,0,0,.737.487Zm2.662-.829v-1.568h2.131a3.218,3.218,0,0,0,.134.5.169.169,0,0,0-.1.155v.909Zm-2.414,0v-1.568h2.073v1.568Zm4.69-7.465v1.612h-2.276v-1.612Zm2.584,0v1.612h-2.243v-1.612Zm-2.78,5.317c0,.08,0,.16.008.239h-2.088v-1.66h2.276v.307a3.234,3.234,0,0,0-.2,1.114Zm-4.494-3.364h2.073v1.6h-2.073Zm0,1.943h2.073v1.66h-2.073Zm2.414-.342v-1.6h2.276v1.6Zm-.341-1.942h-2.073v-1.612h2.073Zm2.847,5.317a3.342,3.342,0,0,0,.38.536h-.38Zm.111-3.405v-1.571h2.243v.094a3.4,3.4,0,0,0-2.243,1.477Zm2.858,4.776a2.984,2.984,0,1,1,3.054-2.983,3.023,3.023,0,0,1-3.054,2.983Zm0,0"
                                                  fill="#3a8093"/>
                                            <circle id="Ellipse_51" data-name="Ellipse 51" cx="13.37" cy="13.37"
                                                    r="13.37" transform="translate(5571.129 1132.259)" fill="#3a8093"
                                                    opacity="0.1"/>
                                        </g>
                                    </g>
                                </g>
                            </g>
                        </g>
                    </g>
                </g>
            </g>
        </g>
    </g>
</svg>
