<svg xmlns="http://www.w3.org/2000/svg" width="27.643" height="27.644" viewBox="0 0 27.643 27.644">
    <g id="Group_706" data-name="Group 706" transform="translate(-5026.011 -2026.479)">
        <g id="Group_92" data-name="Group 92" transform="translate(5026.011 2026.479)">
            <path id="Path_62" data-name="Path 62"
                  d="M5039.831,2026.479a13.822,13.822,0,1,0,13.823,13.82,13.835,13.835,0,0,0-13.823-13.82Zm0,26.58a12.758,12.758,0,1,1,12.759-12.759,12.772,12.772,0,0,1-12.759,12.759Zm0,0"
                  transform="translate(-5026.012 -2026.479)" fill="#fff"/>
            <path id="Path_63" data-name="Path 63"
                  d="M5030.864,2032.875a.532.532,0,0,0-.532.529v1.064a.533.533,0,0,0,1.065,0V2033.4a.53.53,0,0,0-.533-.529Zm0,0"
                  transform="translate(-5017.044 -2013.205)" fill="#fff"/>
            <path id="Path_64" data-name="Path 64"
                  d="M5033.437,2028.034h-.062a4.258,4.258,0,0,0-4.253,4.256.532.532,0,0,0,1.063,0,3.192,3.192,0,0,1,3.235-3.192,3.251,3.251,0,0,1,3.144,3.143,3.179,3.179,0,0,1-1.461,2.731,5.063,5.063,0,0,0-2.261,4.309v1.513a.533.533,0,0,0,1.065,0v-1.513a4.066,4.066,0,0,1,1.771-3.417,4.237,4.237,0,0,0,1.95-3.638,4.283,4.283,0,0,0-4.192-4.191Zm0,0"
                  transform="translate(-5019.555 -2023.252)" fill="#fff"/>
        </g>
    </g>
</svg>
