<?xml version="1.0" standalone="no"?>
<!DOCTYPE svg PUBLIC "-//W3C//DTD SVG 20010904//EN"
 "http://www.w3.org/TR/2001/REC-SVG-20010904/DTD/svg10.dtd">
<svg version="1.0" xmlns="http://www.w3.org/2000/svg"
 width="512.000000pt" height="512.000000pt" viewBox="0 0 512.000000 512.000000"
 preserveAspectRatio="xMidYMid meet">

<g transform="translate(0.000000,512.000000) scale(0.100000,-0.100000)"
fill="#000000" stroke="none">
<path d="M2501 4352 c-19 -10 -43 -34 -53 -53 -17 -32 -18 -85 -18 -1068 l0
-1034 -330 336 c-182 185 -347 346 -366 358 -99 61 -218 -32 -190 -148 8 -31
910 -943 958 -969 32 -17 81 -18 111 -3 31 16 935 918 953 951 48 90 -33 201
-135 184 -30 -5 -87 -57 -388 -358 l-353 -353 0 1035 c0 984 -1 1037 -18 1069
-20 38 -73 71 -112 71 -14 0 -41 -8 -59 -18z"/>
<path d="M395 2663 c-33 -9 -72 -41 -84 -71 -9 -21 -11 -203 -9 -698 l3 -669
26 -66 c40 -103 76 -158 154 -236 83 -81 181 -135 292 -158 102 -22 3464 -22
3566 0 111 23 209 77 292 158 78 78 114 133 154 236 l26 66 3 669 c2 495 0
677 -9 698 -34 82 -152 98 -214 28 -19 -21 -20 -40 -25 -679 -5 -656 -5 -656
-28 -713 -31 -76 -99 -150 -170 -185 l-57 -28 -1755 0 -1755 0 -57 28 c-71 35
-139 109 -170 185 -23 57 -23 57 -28 713 -5 639 -6 658 -25 679 -21 24 -75 51
-97 49 -7 -1 -22 -4 -33 -6z"/>
</g>
</svg>
