<svg xmlns="http://www.w3.org/2000/svg" width="177.56" height="146.562" viewBox="0 0 177.56 146.562">
    <g id="Group_209" data-name="Group 209" transform="translate(-2904.082 -2086.655)">
        <g id="Group_205" data-name="Group 205" transform="translate(2907.292 2188.8)">
            <g id="Group_204" data-name="Group 204">
                <g id="Group_200" data-name="Group 200" transform="translate(0 8.157)">
                    <path id="Path_122" data-name="Path 122"
                          d="M2913.123,2175.733c-.04.033-.374-.333-.949-1.026a12.3,12.3,0,0,1-.987-1.31,20.847,20.847,0,0,1-1.173-1.83,30.92,30.92,0,0,1-2.4-5.131,32.553,32.553,0,0,1-1.817-13.689,30.735,30.735,0,0,1,.979-5.579,20.742,20.742,0,0,1,.656-2.074,12.382,12.382,0,0,1,.61-1.522,4.86,4.86,0,0,1,.65-1.238c.135.056-.674,1.873-1.392,4.965a34.754,34.754,0,0,0-.8,5.5,34.73,34.73,0,0,0,1.781,13.406,34.664,34.664,0,0,0,2.209,5.1C2911.984,2174.1,2913.24,2175.644,2913.123,2175.733Z"
                          transform="translate(-2905.702 -2142.333)" fill="#d3d3d3"/>
                </g>
                <g id="Group_201" data-name="Group 201" transform="translate(8.507 10.351)">
                    <path id="Path_123" data-name="Path 123"
                          d="M2921.448,2177.5a5.526,5.526,0,0,1-1.183-.889,12.25,12.25,0,0,1-1.274-1.181,20.716,20.716,0,0,1-1.561-1.694,30.455,30.455,0,0,1-3.4-4.941,32.407,32.407,0,0,1-4-14.052,30.373,30.373,0,0,1,.293-5.991,20.549,20.549,0,0,1,.434-2.262,12.2,12.2,0,0,1,.462-1.674,5.535,5.535,0,0,1,.537-1.379c.145.042-.523,2.043-.9,5.383a33.771,33.771,0,0,0-.126,5.882,34.146,34.146,0,0,0,3.918,13.76,33.566,33.566,0,0,0,3.2,4.935C2919.927,2176.042,2921.549,2177.39,2921.448,2177.5Z"
                          transform="translate(-2909.996 -2143.441)" fill="#d3d3d3"/>
                </g>
                <g id="Group_202" data-name="Group 202" transform="translate(156.655)">
                    <path id="Path_124" data-name="Path 124"
                          d="M2984.787,2178.031c-.123-.079,1.175-2.019,2.742-5.412a49.023,49.023,0,0,0,2.326-6.124,48.029,48.029,0,0,0,2.043-15.836,49.13,49.13,0,0,0-.7-6.514c-.656-3.679-1.418-5.884-1.28-5.929a6.837,6.837,0,0,1,.624,1.517,32.913,32.913,0,0,1,1.185,4.311,43.1,43.1,0,0,1,.866,6.583,44.738,44.738,0,0,1-2.074,16.076,42.81,42.81,0,0,1-2.508,6.149,32.293,32.293,0,0,1-2.241,3.869A6.853,6.853,0,0,1,2984.787,2178.031Z"
                          transform="translate(-2984.779 -2138.216)" fill="#d3d3d3"/>
                </g>
                <g id="Group_203" data-name="Group 203" transform="translate(168.586 5.461)">
                    <path id="Path_125" data-name="Path 125"
                          d="M2990.811,2173.269c-.119-.077.923-1.662,2.127-4.446a35.864,35.864,0,0,0,1.726-5.024,35.421,35.421,0,0,0,.945-12.9,36.152,36.152,0,0,0-.974-5.222c-.785-2.928-1.585-4.65-1.456-4.708a4.59,4.59,0,0,1,.656,1.166,23.25,23.25,0,0,1,1.317,3.393,31.379,31.379,0,0,1,1.155,5.288,32.992,32.992,0,0,1-.965,13.164,31.216,31.216,0,0,1-1.914,5.062,23.174,23.174,0,0,1-1.8,3.165A4.577,4.577,0,0,1,2990.811,2173.269Z"
                          transform="translate(-2990.801 -2140.972)" fill="#d3d3d3"/>
                </g>
            </g>
        </g>
        <g id="Group_206" data-name="Group 206" transform="translate(2933.967 2104.334)">
            <path id="Path_126" data-name="Path 126"
                  d="M2925.475,2212.84h112.692a6.31,6.31,0,0,0,5.525-9.3L2987.374,2098.9a6.307,6.307,0,0,0-11.108,0l-56.345,104.637a6.313,6.313,0,0,0,5.553,9.3Zm63.516-19.119H2974.65v-14.333h14.341Zm0-23.893H2974.65v-28.674h14.341Z"
                  transform="translate(-2919.167 -2095.579)" fill="#474353"/>
            <path id="Path_127" data-name="Path 127"
                  d="M2925.475,2212.84h112.692a6.31,6.31,0,0,0,5.525-9.3L2987.374,2098.9a6.307,6.307,0,0,0-11.108,0l-56.345,104.637a6.313,6.313,0,0,0,5.553,9.3Zm63.516-19.119H2974.65v-14.333h14.341Zm0-23.893H2974.65v-28.674h14.341Z"
                  transform="translate(-2919.167 -2095.579)" fill="#ed3e3e"/>
            <path id="Path_128" data-name="Path 128"
                  d="M2925.475,2214.584h112.692a6.311,6.311,0,0,0,5.525-9.305l-56.317-104.637a6.307,6.307,0,0,0-11.108,0l-56.345,104.637a6.313,6.313,0,0,0,5.553,9.305Zm63.516-19.121H2974.65V2181.13h14.341Zm0-23.893H2974.65V2142.9h14.341Z"
                  transform="translate(-2919.167 -2093.868)" fill="#ef5050"/>
        </g>
        <g id="Group_207" data-name="Group 207" transform="translate(3041.661 2101.508)">
            <path id="Path_129" data-name="Path 129"
                  d="M2976.017,2135.142l35.467-8.067a2.04,2.04,0,0,0,1.074-3.324l-25.215-28.9a2.036,2.036,0,0,0-3.5.794l-10.242,36.964a2.037,2.037,0,0,0,1.421,2.508A2.064,2.064,0,0,0,2976.017,2135.142Zm18.622-10.565-4.513,1.028-1.026-4.513,4.513-1.026Zm-1.71-7.52-4.515,1.028-2.052-9.026,4.513-1.026Z"
                  transform="translate(-2973.529 -2094.153)" fill="#474353"/>
            <path id="Path_130" data-name="Path 130"
                  d="M2976.017,2135.142l35.467-8.067a2.04,2.04,0,0,0,1.074-3.324l-25.215-28.9a2.036,2.036,0,0,0-3.5.794l-10.242,36.964a2.037,2.037,0,0,0,1.421,2.508A2.064,2.064,0,0,0,2976.017,2135.142Zm18.622-10.565-4.513,1.028-1.026-4.513,4.513-1.026Zm-1.71-7.52-4.515,1.028-2.052-9.026,4.513-1.026Z"
                  transform="translate(-2973.529 -2094.153)" fill="#ed3e3e"/>
            <path id="Path_131" data-name="Path 131"
                  d="M2976.142,2135.69l35.467-8.067a2.038,2.038,0,0,0,1.073-3.324l-25.215-28.9a2.036,2.036,0,0,0-3.5.795l-10.244,36.965a2.039,2.039,0,0,0,1.422,2.508A2.06,2.06,0,0,0,2976.142,2135.69Zm18.622-10.565-4.515,1.026-1.025-4.511,4.513-1.026Zm-1.712-7.52-4.513,1.026-2.052-9.023,4.512-1.026Z"
                  transform="translate(-2973.407 -2093.614)" fill="#ef5050"/>
        </g>
        <g id="Group_208" data-name="Group 208" transform="translate(2904.082 2086.655)">
            <path id="Path_132" data-name="Path 132"
                  d="M2905.947,2122.478l42.089,16.288a2.531,2.531,0,0,0,3.41-2.679l-5.911-47.22a2.525,2.525,0,0,0-4.149-1.6l-36.168,30.938a2.53,2.53,0,0,0,.729,4.277Zm26.487,2.039-5.355-2.073,2.071-5.355,5.357,2.074Zm3.452-8.925-5.354-2.072,4.144-10.71,5.355,2.072Z"
                  transform="translate(-2903.834 -2086.655)" fill="#474353"/>
            <path id="Path_133" data-name="Path 133"
                  d="M2905.947,2122.478l42.089,16.288a2.531,2.531,0,0,0,3.41-2.679l-5.911-47.22a2.525,2.525,0,0,0-4.149-1.6l-36.168,30.938a2.53,2.53,0,0,0,.729,4.277Zm26.487,2.039-5.355-2.073,2.071-5.355,5.357,2.074Zm3.452-8.925-5.354-2.072,4.144-10.71,5.355,2.072Z"
                  transform="translate(-2903.834 -2086.655)" fill="#ed3e3e"/>
            <path id="Path_134" data-name="Path 134"
                  d="M2905.695,2123.129l42.089,16.289a2.529,2.529,0,0,0,3.41-2.676l-5.912-47.222a2.524,2.524,0,0,0-4.149-1.6l-36.168,30.938a2.529,2.529,0,0,0,.729,4.277Zm26.487,2.039-5.355-2.072,2.07-5.353,5.357,2.073Zm3.452-8.925-5.355-2.073,4.145-10.709,5.355,2.072Z"
                  transform="translate(-2904.082 -2086.016)" fill="#ef5050"/>
        </g>
    </g>
</svg>
